<mxfile host="Electron" agent="Mozilla/5.0 (Windows NT 10.0; Win64; x64) AppleWebKit/537.36 (KHTML, like Gecko) draw.io/24.7.8 Chrome/128.0.6613.36 Electron/32.0.1 Safari/537.36" version="24.7.8">
  <diagram name="Page-1" id="HcOTLmmNsfUf8rnWxVMz">
    <mxGraphModel dx="691" dy="401" grid="1" gridSize="10" guides="1" tooltips="1" connect="1" arrows="1" fold="1" page="1" pageScale="1" pageWidth="827" pageHeight="1169" math="1" shadow="0">
      <root>
        <mxCell id="0" />
        <mxCell id="1" parent="0" />
        <mxCell id="PHlTgSyBsirvF18YIG-R-6" value="" style="shape=hexagon;perimeter=hexagonPerimeter2;whiteSpace=wrap;html=1;fixedSize=1;rounded=0;rotation=0;direction=south;fillColor=#2B92E0;strokeColor=none;" parent="1" vertex="1">
          <mxGeometry x="344.225" y="240" width="71.55" height="80" as="geometry" />
        </mxCell>
        <mxCell id="PHlTgSyBsirvF18YIG-R-7" value="" style="ellipse;whiteSpace=wrap;html=1;aspect=fixed;fillColor=#435461;strokeColor=none;" parent="1" vertex="1">
          <mxGeometry x="366.9" y="266.90000000000003" width="26.2" height="26.2" as="geometry" />
        </mxCell>
        <mxCell id="xXBTyWHlVURf_2NoqHK3-7" value="" style="rounded=0;whiteSpace=wrap;html=1;strokeColor=none;fillColor=#E17A2A;" parent="1" vertex="1">
          <mxGeometry x="329.99" y="259.84" width="5" height="40" as="geometry" />
        </mxCell>
        <mxCell id="WiSLto_gjKmPits39EAg-2" value="" style="rounded=0;whiteSpace=wrap;html=1;strokeColor=none;fillColor=#31DEB9;rotation=120;" vertex="1" parent="1">
          <mxGeometry x="402" y="219" width="5" height="40" as="geometry" />
        </mxCell>
        <mxCell id="WiSLto_gjKmPits39EAg-3" value="" style="rounded=0;whiteSpace=wrap;html=1;strokeColor=none;fillColor=#613819;rotation=60;" vertex="1" parent="1">
          <mxGeometry x="402" y="301" width="5" height="40" as="geometry" />
        </mxCell>
      </root>
    </mxGraphModel>
  </diagram>
</mxfile>
